<svg width="49" height="31" viewBox="0 0 49 31" xmlns="http://www.w3.org/2000/svg" xmlns:sketch="http://www.bohemiancoding.com/sketch/ns"><title>Slice 1</title><g sketch:type="MSLayerGroup" fill="#f50" fill-rule="evenodd"><path d="M17.697 22.309l.04-2.358-1.311-.325c-.065-.408-.158-.806-.279-1.191l1.013-.94-1.079-2.061-1.291.414c-.247-.315-.516-.609-.804-.881l.435-1.352-1.909-1.212-.922 1.04c-.36-.141-.732-.253-1.115-.336l-.262-1.398-2.228-.038-.309 1.389c-.386.069-.762.169-1.126.298l-.887-1.07-1.949 1.146.388 1.366c-.298.262-.576.547-.834.853l-1.277-.457-1.149 2.023.98.974c-.134.381-.241.775-.319 1.181l-1.322.28-.04 2.358 1.311.324c.065.408.158.806.279 1.191l-1.013.94 1.079 2.061 1.291-.414c.247.315.515.609.804.881l-.435 1.352 1.909 1.212.922-1.039c.36.141.732.253 1.115.336l.262 1.398 2.228.038.309-1.388c.386-.069.762-.169 1.126-.298l.887 1.07 1.949-1.146-.388-1.366c.298-.262.577-.547.834-.853l1.276.457 1.149-2.023-.98-.974c.134-.381.241-.775.319-1.181l1.322-.28zm-6.094-1.283c-.026 1.557-1.241 2.799-2.712 2.774-1.471-.025-2.642-1.307-2.616-2.865.026-1.557 1.24-2.799 2.712-2.774 1.471.025 2.642 1.308 2.616 2.865zM48.224 16.286v-3.668l-2.166-.47c-.118-.633-.283-1.249-.492-1.845l1.64-1.489-1.833-3.176-2.112.677c-.414-.483-.865-.934-1.348-1.348l.677-2.114-3.174-1.834-1.488 1.641c-.595-.209-1.211-.375-1.844-.493l-.47-2.167h-3.666l-.469 2.167c-.633.118-1.249.283-1.844.493l-1.488-1.641-3.175 1.834.677 2.114c-.483.415-.933.865-1.347 1.348l-2.113-.677-1.833 3.176 1.64 1.489c-.209.596-.374 1.212-.492 1.845l-2.166.47v3.668l2.166.47c.118.633.283 1.249.492 1.845l-1.64 1.489 1.833 3.176 2.113-.677c.414.483.865.933 1.347 1.348l-.677 2.114 3.175 1.834 1.488-1.64c.595.209 1.211.375 1.844.493l.469 2.167h3.666l.47-2.167c.633-.118 1.249-.283 1.844-.493l1.488 1.64 3.174-1.834-.677-2.114c.483-.415.933-.865 1.348-1.348l2.112.677 1.833-3.176-1.64-1.489c.21-.596.374-1.212.492-1.845l2.166-.47zm-10.061-1.834c0 2.422-1.963 4.385-4.383 4.385-2.421 0-4.383-1.963-4.383-4.385 0-2.422 1.962-4.385 4.383-4.385 2.42 0 4.383 1.964 4.383 4.385z" sketch:type="MSShapeGroup"/></g></svg>
